<svg width="165" height="49" viewBox="0 0 165 49" fill="none" xmlns="http://www.w3.org/2000/svg">
<path id="Google" fill-rule="evenodd" clip-rule="evenodd" d="M0 19.5C0 16.7917 0.512972 14.2549 1.53893 11.8896C2.56489 9.52429 3.97556 7.45695 5.77099 5.6875C7.56642 3.91805 9.66411 2.52778 12.0641 1.51667C14.4641 0.505551 17.0382 0 19.7863 0C22.4244 0 24.7145 0.415274 26.6565 1.24583C28.5985 2.07639 30.229 2.97916 31.5481 3.95417C33.0504 5.10973 34.3511 6.40971 35.4504 7.85417L32.7023 10.2917C31.8229 9.06388 30.7603 7.98056 29.5145 7.04167C28.4519 6.21111 27.1145 5.46181 25.5023 4.79375C23.8901 4.12569 21.9847 3.79167 19.7863 3.79167C17.5878 3.79167 15.5359 4.18888 13.6305 4.98333C11.7252 5.77778 10.0672 6.87916 8.65649 8.2875C7.24579 9.69584 6.13741 11.3569 5.3313 13.2708C4.52519 15.1847 4.12214 17.2611 4.12214 19.5C4.12214 21.7389 4.52519 23.8153 5.3313 25.7292C6.13741 27.6431 7.24579 29.3042 8.65649 30.7125C10.0672 32.1208 11.7252 33.2222 13.6305 34.0167C15.5359 34.8111 17.5878 35.2083 19.7863 35.2083C21.8748 35.2083 23.6702 34.9465 25.1725 34.4229C26.6748 33.8993 27.9206 33.3125 28.9099 32.6625C30.0824 31.9042 31.0718 31.0375 31.8779 30.0625V22.75H23.084V18.9583H36V31.1458C34.8275 32.6264 33.4351 33.9444 31.8229 35.1C30.4305 36.075 28.7359 36.9687 26.7389 37.7812C24.742 38.5938 22.4244 39 19.7863 39C17.0382 39 14.4641 38.4944 12.0641 37.4833C9.66411 36.4722 7.56642 35.082 5.77099 33.3125C3.97556 31.543 2.56489 29.4757 1.53893 27.1104C0.512972 24.7451 0 22.2083 0 19.5ZM64 25C64 23.5946 63.7467 22.2793 63.24 21.0541C62.7333 19.8288 62.0457 18.7658 61.1771 17.8649C60.3086 16.964 59.3043 16.2613 58.1643 15.7568C57.0243 15.2522 55.8029 15 54.5 15C53.1971 15 51.9757 15.2522 50.8357 15.7568C49.6957 16.2613 48.6914 16.964 47.8229 17.8649C46.9543 18.7658 46.2667 19.8288 45.76 21.0541C45.2533 22.2793 45 23.5946 45 25C45 26.4054 45.2533 27.7207 45.76 28.9459C46.2667 30.1712 46.9543 31.2252 47.8229 32.1081C48.6914 32.991 49.6957 33.6937 50.8357 34.2162C51.9757 34.7387 53.1971 35 54.5 35C55.8029 35 57.0243 34.7477 58.1643 34.2432C59.3043 33.7387 60.3086 33.036 61.1771 32.1351C62.0457 31.2342 62.7333 30.1712 63.24 28.9459C63.7467 27.7207 64 26.4054 64 25ZM41 25.5C41 23.628 41.3582 21.864 42.0745 20.208C42.7908 18.552 43.7551 17.121 44.9673 15.915C46.1796 14.709 47.6031 13.755 49.2378 13.053C50.8725 12.351 52.6265 12 54.5 12C56.3735 12 58.1275 12.351 59.7622 13.053C61.3969 13.755 62.8204 14.709 64.0327 15.915C65.2449 17.121 66.2092 18.552 66.9255 20.208C67.6418 21.864 68 23.628 68 25.5C68 27.408 67.6418 29.181 66.9255 30.819C66.2092 32.457 65.2449 33.879 64.0327 35.085C62.8204 36.291 61.3969 37.245 59.7622 37.947C58.1275 38.649 56.3735 39 54.5 39C52.6265 39 50.8725 38.649 49.2378 37.947C47.6031 37.245 46.1796 36.291 44.9673 35.085C43.7551 33.879 42.7908 32.457 42.0745 30.819C41.3582 29.181 41 27.408 41 25.5ZM93 25C93 23.5946 92.7467 22.2793 92.24 21.0541C91.7333 19.8288 91.0457 18.7658 90.1771 17.8649C89.3086 16.964 88.3043 16.2613 87.1643 15.7568C86.0243 15.2522 84.8029 15 83.5 15C82.1971 15 80.9757 15.2522 79.8357 15.7568C78.6957 16.2613 77.6914 16.964 76.8229 17.8649C75.9543 18.7658 75.2667 19.8288 74.76 21.0541C74.2533 22.2793 74 23.5946 74 25C74 26.4054 74.2533 27.7207 74.76 28.9459C75.2667 30.1712 75.9543 31.2252 76.8229 32.1081C77.6914 32.991 78.6957 33.6937 79.8357 34.2162C80.9757 34.7387 82.1971 35 83.5 35C84.8029 35 86.0243 34.7477 87.1643 34.2432C88.3043 33.7387 89.3086 33.036 90.1771 32.1351C91.0457 31.2342 91.7333 30.1712 92.24 28.9459C92.7467 27.7207 93 26.4054 93 25ZM70 25.5C70 23.628 70.3582 21.864 71.0745 20.208C71.7908 18.552 72.7551 17.121 73.9673 15.915C75.1796 14.709 76.6031 13.755 78.2378 13.053C79.8725 12.351 81.6265 12 83.5 12C85.3735 12 87.1275 12.351 88.7622 13.053C90.3969 13.755 91.8204 14.709 93.0327 15.915C94.2449 17.121 95.2092 18.552 95.9255 20.208C96.6418 21.864 97 23.628 97 25.5C97 27.408 96.6418 29.181 95.9255 30.819C95.2092 32.457 94.2449 33.879 93.0327 35.085C91.8204 36.291 90.3969 37.245 88.7622 37.947C87.1275 38.649 85.3735 39 83.5 39C81.6265 39 79.8725 38.649 78.2378 37.947C76.6031 37.245 75.1796 36.291 73.9673 35.085C72.7551 33.879 71.7908 32.457 71.0745 30.819C70.3582 29.181 70 27.408 70 25.5ZM121.154 32.7143C120.568 33.5105 119.853 34.2343 119.011 34.8857C118.278 35.4286 117.372 35.9262 116.291 36.3786C115.211 36.831 113.901 37.0571 112.363 37.0571C110.714 37.0571 109.139 36.7224 107.637 36.0529C106.136 35.3833 104.826 34.4605 103.709 33.2843C102.592 32.1081 101.694 30.7329 101.016 29.1586C100.339 27.5843 100 25.8743 100 24.0286C100 22.1828 100.339 20.4729 101.016 18.8986C101.694 17.3243 102.592 15.9491 103.709 14.7729C104.826 13.5967 106.136 12.6738 107.637 12.0043C109.139 11.3348 110.714 11 112.363 11C113.901 11 115.211 11.2262 116.291 11.6786C117.372 12.131 118.278 12.6286 119.011 13.1714C119.853 13.8229 120.568 14.5467 121.154 15.3429V11.5429H125V35.9714C125 37.8172 124.661 39.5271 123.984 41.1014C123.306 42.6757 122.381 44.0509 121.209 45.2271C120.037 46.4033 118.672 47.3262 117.115 47.9957C115.559 48.6652 113.883 49 112.088 49C110.22 49 108.599 48.7195 107.225 48.1586C105.852 47.5976 104.707 46.9733 103.791 46.2857C102.729 45.4895 101.832 44.5848 101.099 43.5714L103.571 41.1286C104.194 41.9248 104.927 42.6486 105.769 43.3C106.502 43.8429 107.39 44.3405 108.434 44.7929C109.478 45.2452 110.696 45.4714 112.088 45.4714C113.333 45.4714 114.505 45.2271 115.604 44.7386C116.703 44.25 117.665 43.5895 118.489 42.7571C119.313 41.9248 119.963 40.9295 120.44 39.7714C120.916 38.6133 121.154 37.3467 121.154 35.9714V32.7143ZM104 24.5C104 25.8752 104.234 27.1419 104.702 28.3C105.169 29.4581 105.79 30.4533 106.563 31.2857C107.337 32.1181 108.228 32.7786 109.235 33.2671C110.242 33.7557 111.286 34 112.365 34C113.516 34 114.614 33.7557 115.657 33.2671C116.701 32.7786 117.618 32.1181 118.41 31.2857C119.201 30.4533 119.831 29.4581 120.298 28.3C120.766 27.1419 121 25.8752 121 24.5C121 23.1609 120.766 21.9033 120.298 20.7271C119.831 19.5509 119.201 18.5467 118.41 17.7143C117.618 16.8819 116.701 16.2214 115.657 15.7329C114.614 15.2443 113.516 15 112.365 15C111.286 15 110.242 15.2443 109.235 15.7329C108.228 16.2214 107.337 16.8819 106.563 17.7143C105.79 18.5467 105.169 19.5509 104.702 20.7271C104.234 21.9033 104 23.1609 104 24.5ZM135 38H131V0H135V38ZM143.763 26.85C143.835 28.002 144.122 29.1 144.624 30.144C145.125 31.188 145.789 32.106 146.613 32.898C147.437 33.69 148.387 34.32 149.462 34.788C150.538 35.256 151.685 35.49 152.903 35.49C154.265 35.49 155.457 35.265 156.479 34.815C157.5 34.365 158.369 33.87 159.086 33.33C159.91 32.682 160.627 31.962 161.237 31.17L163.656 33.6C162.903 34.608 161.989 35.508 160.914 36.3C159.982 36.984 158.853 37.605 157.527 38.163C156.201 38.721 154.66 39 152.903 39C151.147 39 149.489 38.649 147.93 37.947C146.371 37.245 145 36.291 143.817 35.085C142.634 33.879 141.703 32.457 141.021 30.819C140.34 29.181 140 27.408 140 25.5C140 23.628 140.34 21.864 141.021 20.208C141.703 18.552 142.625 17.121 143.79 15.915C144.955 14.709 146.299 13.755 147.823 13.053C149.346 12.351 150.95 12 152.634 12C154.391 12 156.021 12.324 157.527 12.972C159.032 13.62 160.34 14.511 161.452 15.645C162.563 16.779 163.432 18.147 164.059 19.749C164.686 21.351 165 23.088 165 24.96C165 25.248 164.982 25.509 164.946 25.743C164.91 25.977 164.875 26.184 164.839 26.364C164.803 26.58 164.767 26.76 164.731 26.904L143.763 26.85ZM153.138 15C151.957 15 150.84 15.2119 149.788 15.6358C148.735 16.0596 147.803 16.6424 146.991 17.3841C146.178 18.1258 145.514 18.9823 144.997 19.9536C144.48 20.9249 144.148 21.9404 144 23H162C161.852 21.8698 161.529 20.8102 161.031 19.8212C160.532 18.8322 159.895 17.9846 159.12 17.2781C158.345 16.5717 157.449 16.0155 156.434 15.6093C155.418 15.2031 154.32 15 153.138 15Z" fill="#9EABB2"/>
</svg>
